<svg xml:space="preserve" style="enable-background:new 0 0 256.5 253.117;" viewBox="0 0 256.5 253.117" height="253.117px" width="256.5px" y="0px" x="0px" xmlns:xlink="http://www.w3.org/1999/xlink" xmlns="http://www.w3.org/2000/svg" id="Layer_1" version="1.1">
<g id="Layer_1_1_">
	<g style="opacity:0.72;" id="Layer_4_2_">
		<path d="M247.842,116.232c0-41.554-47.291-60.373-72.422-75.24c-0.534-0.316-1.236,0.031-1.855,0.047
			c-12.629-22.043-35.779-36.825-62.269-36.825c-39.998,0-72.42,33.688-72.42,75.243c0,0.541,0.029,1.071,0.04,1.61
			c0,22.498-36.637,37.377-36.637,65.404c0,41.553,32.425,75.237,72.422,75.237c2.275,0,4.521-0.125,6.744-0.337
			c29.338,0,33.382,27.375,55.88,27.375c36.97,0,67.442-28.783,71.851-65.952C219.357,156.854,247.842,145.12,247.842,116.232z" style="fill:#CFE5FF;"></path>
	</g>
	<path d="M54.986,110.017" style="fill:#F8CFFF;"></path>
	<g style="display:none;" id="Layer_5_3_">
		<g style="display:inline;">
			<g>
				<path d="M113.474,75.247c0,1.898-1.554,3.453-3.453,3.453H36.586c-1.899,0-3.453-1.554-3.453-3.453
					V24.833c0-1.898,1.554-3.453,3.453-3.453h73.435c1.899,0,3.453,1.554,3.453,3.453V75.247z" style="fill:#E6EEFF;"></path>
				<path d="M110.021,80.2H36.586c-2.731,0-4.953-2.222-4.953-4.953V24.833c0-2.731,2.222-4.953,4.953-4.953
					h73.435c2.731,0,4.953,2.222,4.953,4.953v50.414C114.974,77.978,112.752,80.2,110.021,80.2z M36.586,22.88
					c-1.077,0-1.953,0.876-1.953,1.953v50.414c0,1.077,0.876,1.953,1.953,1.953h73.435c1.077,0,1.953-0.876,1.953-1.953V24.833
					c0-1.077-0.876-1.953-1.953-1.953H36.586z" style="fill:#CCCCDE;"></path>
			</g>
			<g>
				<rect height="13.456" width="80.326" style="fill:#D8D8F0;" y="32.127" x="33.133"></rect>
				<path d="M114.959,47.083H31.633V30.627h83.326V47.083z M34.633,44.083h77.326V33.627H34.633V44.083z" style="fill:#CCCCDE;"></path>
			</g>
			<rect height="11.036" width="68.663" style="fill:#FFE7D1;" y="56.03" x="39.105"></rect>
			<g>
				<polygon points="39.105,67.066 50.14,56.03 54.187,56.03 43.151,67.066" style="fill:#FFFFFF;"></polygon>
				<polygon points="49.822,67.066 60.856,56.03 64.902,56.03 53.868,67.066" style="fill:#FFFFFF;"></polygon>
				<polygon points="60.538,67.066 71.574,56.03 75.62,56.03 64.584,67.066" style="fill:#FFFFFF;"></polygon>
				<polygon points="71.254,67.066 82.289,56.03 86.335,56.03 75.3,67.066" style="fill:#FFFFFF;"></polygon>
				<polygon points="81.971,67.066 93.005,56.03 97.052,56.03 86.017,67.066" style="fill:#FFFFFF;"></polygon>
				<polygon points="92.688,67.066 103.722,56.03 107.768,56.03 96.733,67.066" style="fill:#FFFFFF;"></polygon>
			</g>
		</g>
		<g style="display:inline;">
			<path d="M159.443,20.168c0.723-2.219,2.992-4.945,5.045-6.057l0.009-0.005
				c2.052-1.112,2.052-2.931,0-4.043l-0.009-0.005c-2.053-1.112-4.438-3.617-5.301-5.567c-0.862-1.95-2.274-1.95-3.14,0
				c-0.86,1.951-3.248,4.456-5.3,5.567l-0.009,0.005c-2.054,1.112-2.054,2.931,0,4.043l0.009,0.005
				c2.052,1.112,4.32,3.838,5.045,6.057l0.512,1.567c0.723,2.22,1.903,2.22,2.627,0L159.443,20.168z" style="fill:#7FE5FF;"></path>
		</g>
		<g style="display:inline;">
			<path d="M13.748,114.131c0.615-1.887,2.546-4.207,4.292-5.152l0.007-0.004
				c1.746-0.946,1.746-2.494,0-3.439l-0.007-0.004c-1.746-0.946-3.775-3.077-4.508-4.737c-0.734-1.659-1.936-1.659-2.67,0
				c-0.733,1.66-2.763,3.791-4.509,4.737l-0.007,0.004c-1.746,0.945-1.746,2.493,0,3.439l0.007,0.004
				c1.746,0.945,3.677,3.265,4.292,5.152l0.435,1.333c0.615,1.889,1.621,1.889,2.235,0L13.748,114.131z" style="fill:#9ADFC0;"></path>
		</g>
		<g style="display:inline;">
			<path d="M246.137,151.816c1.022-3.143,4.236-7,7.143-8.574l0.013-0.006c2.906-1.576,2.906-4.152,0-5.726
				l-0.013-0.009c-2.904-1.573-6.282-5.121-7.504-7.883c-1.223-2.761-3.223-2.761-4.442,0c-1.222,2.762-4.601,6.31-7.504,7.883
				l-0.013,0.009c-2.905,1.571-2.905,4.147,0,5.726l0.013,0.006c2.903,1.574,6.119,5.434,7.144,8.574l0.723,2.221
				c1.022,3.143,2.697,3.143,3.722,0L246.137,151.816z" style="fill:#FFB0B8;"></path>
		</g>
		<g style="display:inline;">
			<g>
				<polygon points="188.75,183.4 188.75,223.793 231.794,223.793 241.254,194.01 241.254,183.4 
					210.373,183.4 216.902,158.921 209.966,151.984" style="fill:#FFFFFF;"></polygon>
				<path d="M232.892,225.293H187.25v-42.352l22.49-33.304l8.834,8.834l-6.249,23.429h30.429v12.342
					L232.892,225.293z M190.25,222.293h40.446l9.058-28.516V184.9h-31.333l6.81-25.53l-5.039-5.039l-19.941,29.528V222.293z" style="fill:#CCCCDE;"></path>
			</g>
			<g>
				<rect height="40.393" width="22.236" style="fill:#CFE4FF;" y="183.4" x="166.514"></rect>
				<path d="M190.25,225.293h-25.236V181.9h25.236V225.293z M168.014,222.293h19.236V184.9h-19.236V222.293z" style="fill:#CCCCDE;"></path>
			</g>
		</g>
		<g style="display:inline;">
			<g>
				<path d="M68.079,191.059v-25.332v-42.746c0-1.743-1.424-3.167-3.166-3.167H3.168
					c-1.741,0-3.167,1.424-3.167,3.167v42.746c0,1.742,1.425,3.168,3.167,3.168h42.43L68.079,191.059z" style="fill:#DFFFFD;"></path>
				<path d="M69.579,194.644l-24.596-24.249H3.168c-2.573,0-4.667-2.094-4.667-4.668v-42.746
					c0-2.573,2.094-4.667,4.667-4.667h61.745c2.573,0,4.666,2.094,4.666,4.667V194.644z M3.168,121.314
					c-0.919,0-1.667,0.748-1.667,1.667v42.746c0,0.92,0.748,1.668,1.667,1.668h43.045l20.366,20.079v-64.493
					c0-0.919-0.748-1.667-1.666-1.667H3.168z" style="fill:#CCCCDE;"></path>
			</g>
			<g style="opacity:0.55;">
				<rect height="3.166" width="43.38" style="fill:#CCCCDE;" y="134.695" x="12.351"></rect>
			</g>
			<g style="opacity:0.55;">
				<rect height="3.168" width="25.964" style="fill:#CCCCDE;" y="143.244" x="29.767"></rect>
			</g>
			<g style="opacity:0.55;">
				<rect height="3.166" width="31.981" style="fill:#CCCCDE;" y="151.479" x="23.75"></rect>
			</g>
		</g>
		<g style="display:inline;">
			<path d="M175.914,67.537l0.566-2.112
				C176.314,66.126,176.124,66.831,175.914,67.537z" style="opacity:0.25;fill:#997070;enable-background:new    ;"></path>
			<g>
				<polygon points="160.395,52.059 182.928,68.431 174.32,94.923 196.855,78.55 219.391,94.923 
					210.468,68.431 233.318,52.059 205.148,52.059 196.855,25.567 188.248,52.059" style="fill:#FFEEA1;"></polygon>
				<path d="M174.32,96.423c-0.31,0-0.619-0.096-0.882-0.287c-0.525-0.382-0.745-1.059-0.545-1.677
					l8.271-25.456l-21.651-15.731c-0.525-0.382-0.745-1.059-0.545-1.677c0.201-0.618,0.777-1.037,1.427-1.037h26.764l8.271-25.456
					c0.201-0.618,0.777-1.037,1.427-1.037c0.003,0,0.005,0,0.008,0c0.653,0.003,1.229,0.429,1.424,1.052l7.964,25.44h27.067
					c0.651,0,1.229,0.421,1.428,1.041c0.199,0.621-0.024,1.299-0.554,1.678l-21.949,15.726l8.494,25.219
					c0.11,0.209,0.173,0.447,0.173,0.7c0,0.829-0.671,1.5-1.5,1.5c-0.005,0-0.012,0.001-0.02,0c-0.31,0-0.619-0.095-0.882-0.287
					l-21.653-15.732l-21.653,15.732C174.939,96.327,174.63,96.423,174.32,96.423z M165.011,53.559l18.799,13.659
					c0.525,0.382,0.745,1.059,0.545,1.677l-7.181,22.101l18.8-13.659c0.525-0.382,1.238-0.382,1.764,0l18.73,13.609l-7.422-22.035
					c-0.21-0.625,0.012-1.314,0.548-1.698l19.056-13.653h-23.501c-0.656,0-1.235-0.426-1.432-1.052l-6.888-22.004l-7.154,22.02
					c-0.201,0.618-0.777,1.037-1.427,1.037H165.011z" style="fill:#CCCCDE;"></path>
			</g>
			<polygon points="183.82,70.774 186.27,64.115 165.229,53.63" style="opacity:0.15;fill:#6E6E96;enable-background:new    ;"></polygon>
			<polygon points="177.311,90.809 196.562,71.558 216.331,90.756 
				196.855,78.55" style="opacity:0.15;fill:#6E6E96;enable-background:new    ;"></polygon>
			<polygon points="228.427,53.63 209.825,61.368 211.3,65.903" style="opacity:0.15;fill:#6E6E96;enable-background:new    ;"></polygon>
			<polygon points="165.229,53.63 191.984,57.259 196.828,30.737 
				188.843,52.859" style="opacity:0.59;fill:#FFFFFF;enable-background:new    ;"></polygon>
		</g>
	</g>
	<g style="display:none;" id="Layer_3_1_">
		<g style="display:inline;">
			<g>
				<path d="M149.68,63.022c0-6.961-10.553-12.896-10.553-24.376c0-10.757,8.721-19.479,19.479-19.479
					c10.759,0,19.479,8.721,19.479,19.479c0,11.223-10.75,14.451-10.888,23.937" style="fill:#FFF8BD;"></path>
				<path d="M150.18,63.022h-1c0-2.888-1.948-5.634-4.204-8.814c-2.976-4.194-6.349-8.948-6.349-15.562
					c0-11.017,8.962-19.979,19.979-19.979s19.979,8.962,19.979,19.979c0,6.048-2.989,9.789-5.88,13.406
					c-2.543,3.182-4.944,6.188-5.008,10.539l-1-0.015c0.068-4.693,2.574-7.829,5.227-11.148c2.783-3.482,5.661-7.083,5.661-12.781
					c0-10.465-8.515-18.979-18.979-18.979s-18.979,8.514-18.979,18.979c0,6.295,3.274,10.911,6.164,14.983
					C148.146,56.948,150.18,59.815,150.18,63.022z" style="fill:#CCCCDE;"></path>
			</g>
			<path d="M167.154,61.849c0,0,0,3.213,0,5.877c0,4.928-4.924,6.911-8.473,6.911l0,0
				c-3.546,0-9.143-1.81-9.143-6.911c0-2.664,0-5.877,0-5.877" style="fill:#F0F0FF;"></path>
			<path d="M168.658,61.871l-3-0.044c0.073-5.05,2.827-8.373,5.49-11.585
				c2.806-3.385,5.455-6.582,5.455-11.913c0-9.914-8.065-17.979-17.979-17.979s-17.979,8.065-17.979,17.979
				c0,5.95,2.982,9.875,5.867,13.67c2.337,3.076,4.545,5.981,4.545,9.534h-3c0-2.542-1.823-4.941-3.934-7.718
				c-2.887-3.798-6.479-8.526-6.479-15.486c0-11.568,9.411-20.979,20.979-20.979s20.979,9.411,20.979,20.979
				c0,6.413-3.265,10.352-6.146,13.827C170.914,55.226,168.716,57.878,168.658,61.871z" style="fill:#CCCCDE;"></path>
			<path d="M158.701,75.819c-4.278,0-10.645-2.239-10.645-8.409v-5.877h3v5.877
				c0,4.437,5.519,5.409,7.645,5.409c2.802,0,6.971-1.44,6.971-5.409v-5.877h3v5.877C168.672,72.872,163.535,75.819,158.701,75.819z" style="fill:#CCCCDE;"></path>
			<rect height="3" width="17.643" style="fill:#CCCCDE;" y="60.017" x="149.529"></rect>
			<rect height="8.465" width="3" style="fill:#CCCCDE;" y="2.004" x="157.122"></rect>
			
				<rect height="3" width="8.464" style="fill:#CCCCDE;" transform="matrix(0.5001 0.866 -0.866 0.5001 80.4948 -118.5442)" y="8.944" x="138.686"></rect>
			
				<rect height="3" width="8.466" style="fill:#CCCCDE;" transform="matrix(0.8661 0.4999 -0.4999 0.8661 28.5672 -62.7586)" y="20.441" x="127.189"></rect>
			<rect height="3" width="8.463" style="fill:#CCCCDE;" y="36.145" x="122.982"></rect>
			
				<rect height="8.464" width="3" style="fill:#CCCCDE;" transform="matrix(0.5001 0.866 -0.866 0.5001 111.9035 -87.1395)" y="49.117" x="129.923"></rect>
			
				<rect height="3" width="8.464" style="fill:#CCCCDE;" transform="matrix(0.866 0.5001 -0.5001 0.866 51.5829 -85.7764)" y="51.85" x="181.591"></rect>
			<rect height="3" width="8.466" style="fill:#CCCCDE;" y="36.145" x="185.8"></rect>
			
				<rect height="8.464" width="3" style="fill:#CCCCDE;" transform="matrix(0.5001 0.866 -0.866 0.5001 111.9012 -149.9519)" y="17.709" x="184.323"></rect>
			
				<rect height="8.465" width="3" style="fill:#CCCCDE;" transform="matrix(0.866 0.5001 -0.5001 0.866 28.5836 -85.7739)" y="6.211" x="172.826"></rect>
		</g>
		<g style="display:inline;">
			<path d="M20.565,51.029c-1.744,1.969-1.749,5.27-0.01,7.336l17.614,20.926
				c1.739,2.065,4.653,2.126,6.476,0.133l37.154-40.626c1.823-1.993,1.934-4.82,0.245-6.284c-1.688-1.463-4.799-1.285-6.916,0.393
				L45.179,56.673c-2.116,1.679-5.66,1.788-7.874,0.241l-9.541-6.655C25.548,48.713,22.31,49.06,20.565,51.029z" style="fill:#DFFFD9;"></path>
			<path d="M41.459,82.38c-1.684,0-3.302-0.773-4.438-2.123L19.408,59.331
				c-2.204-2.618-2.188-6.788,0.035-9.296c1.263-1.425,3.146-2.242,5.167-2.242c1.466,0,2.854,0.428,4.013,1.236l9.542,6.655
				c0.76,0.531,1.783,0.823,2.883,0.823c1.226,0,2.393-0.368,3.201-1.009l29.948-23.766c1.371-1.087,3.153-1.709,4.891-1.709
				c1.531,0,2.93,0.482,3.94,1.358c1.018,0.882,1.624,2.15,1.706,3.569c0.099,1.712-0.567,3.483-1.827,4.86L45.752,80.436
				C44.605,81.69,43.081,82.38,41.459,82.38z M24.609,50.792c-1.146,0-2.238,0.46-2.922,1.231c-1.253,1.415-1.246,3.876,0.015,5.375
				l17.614,20.926c1.119,1.327,3.05,1.368,4.222,0.086l37.154-40.626c0.717-0.784,1.098-1.754,1.045-2.662
				c-0.025-0.428-0.162-1.031-0.676-1.476c-0.465-0.403-1.166-0.625-1.975-0.625c-1.074,0-2.177,0.386-3.027,1.06L46.112,57.848
				c-1.349,1.07-3.147,1.659-5.065,1.659c-1.708,0-3.342-0.484-4.601-1.363l-9.54-6.654C26.262,51.04,25.447,50.792,24.609,50.792z" style="fill:#CCCCDE;"></path>
		</g>
	</g>
	<g style="display:none;" id="Layer_2_3_">
		<circle r="73.213" cy="132.114" cx="123.671" style="display:inline;fill:#E0ECFF;"></circle>
		<circle r="61.155" cy="132.03" cx="123.755" style="display:inline;fill:#F2FAFF;"></circle>
		<path d="M101.236,94.323c-0.519,0-1.023-0.27-1.301-0.75l-4.383-7.593
			c-0.414-0.718-0.168-1.635,0.549-2.049c0.719-0.414,1.635-0.167,2.049,0.549l4.383,7.593c0.414,0.718,0.168,1.635-0.549,2.049
			C101.749,94.258,101.491,94.323,101.236,94.323z" style="display:inline;fill:#6E6E96;"></path>
		<path d="M84.693,110.863c-0.254,0-0.512-0.065-0.749-0.202l-7.591-4.383
			c-0.717-0.414-0.963-1.332-0.549-2.049c0.415-0.717,1.332-0.963,2.049-0.549l7.591,4.383c0.717,0.414,0.963,1.332,0.549,2.049
			C85.716,110.594,85.212,110.863,84.693,110.863z" style="display:inline;fill:#6E6E96;"></path>
		<path d="M77.105,160.434c-0.519,0-1.022-0.269-1.3-0.75
			c-0.415-0.717-0.169-1.635,0.548-2.049l7.591-4.385c0.719-0.415,1.636-0.169,2.049,0.549c0.415,0.717,0.169,1.635-0.548,2.049
			l-7.591,4.385C77.618,160.369,77.36,160.434,77.105,160.434z" style="display:inline;fill:#6E6E96;"></path>
		<path d="M96.853,180.184c-0.254,0-0.512-0.064-0.748-0.2
			c-0.718-0.414-0.964-1.332-0.55-2.049l4.381-7.595c0.415-0.719,1.332-0.963,2.049-0.551c0.718,0.414,0.964,1.332,0.55,2.049
			l-4.381,7.595C97.875,179.915,97.371,180.184,96.853,180.184z" style="display:inline;fill:#6E6E96;"></path>
		<path d="M150.81,180.182c-0.518,0-1.022-0.269-1.3-0.75l-4.385-7.593
			c-0.414-0.717-0.169-1.635,0.549-2.049c0.716-0.415,1.635-0.17,2.049,0.549l4.385,7.593c0.414,0.717,0.169,1.635-0.549,2.049
			C151.322,180.117,151.064,180.182,150.81,180.182z" style="display:inline;fill:#6E6E96;"></path>
		<path d="M170.556,160.432c-0.255,0-0.513-0.064-0.749-0.201l-7.591-4.383
			c-0.718-0.414-0.963-1.331-0.549-2.049c0.414-0.719,1.333-0.964,2.049-0.549l7.591,4.383c0.718,0.414,0.963,1.331,0.549,2.049
			C171.578,160.163,171.073,160.432,170.556,160.432z" style="display:inline;fill:#6E6E96;"></path>
		<path d="M162.966,110.861c-0.518,0-1.022-0.269-1.3-0.75
			c-0.414-0.717-0.169-1.635,0.549-2.049l7.59-4.384c0.716-0.415,1.636-0.17,2.049,0.549c0.414,0.717,0.169,1.635-0.549,2.049
			l-7.59,4.384C163.479,110.796,163.221,110.861,162.966,110.861z" style="display:inline;fill:#6E6E96;"></path>
		<path d="M146.422,94.322c-0.255,0-0.513-0.065-0.749-0.202
			c-0.718-0.414-0.963-1.332-0.549-2.049l4.384-7.592c0.414-0.718,1.333-0.964,2.049-0.549c0.718,0.414,0.963,1.332,0.549,2.049
			l-4.384,7.592C147.444,94.053,146.939,94.322,146.422,94.322z" style="display:inline;fill:#6E6E96;"></path>
		<g style="display:inline;opacity:0.39;">
			<path d="M123.829,82.129c-0.829,0-1.5-0.671-1.5-1.5V78c0-0.829,0.671-1.5,1.5-1.5s1.5,0.671,1.5,1.5
				v2.629C125.329,81.458,124.658,82.129,123.829,82.129z" style="fill:#6E6E96;"></path>
			<path d="M114.915,82.909c-0.714,0-1.347-0.512-1.475-1.24l-0.457-2.588
				c-0.144-0.816,0.4-1.594,1.216-1.738c0.812-0.143,1.594,0.4,1.738,1.216l0.457,2.588c0.144,0.816-0.4,1.594-1.216,1.738
				C115.09,82.901,115.002,82.909,114.915,82.909z" style="fill:#6E6E96;"></path>
			<path d="M106.274,85.225c-0.613,0-1.188-0.378-1.41-0.988l-0.898-2.47
				c-0.283-0.779,0.119-1.64,0.897-1.922c0.778-0.283,1.639,0.118,1.922,0.897l0.898,2.47c0.283,0.779-0.119,1.64-0.897,1.922
				C106.617,85.195,106.444,85.225,106.274,85.225z" style="fill:#6E6E96;"></path>
			<path d="M98.167,89.005c-0.519,0-1.023-0.27-1.301-0.751l-1.313-2.276
				c-0.414-0.717-0.168-1.635,0.55-2.049c0.717-0.414,1.635-0.168,2.049,0.55l1.313,2.276c0.414,0.717,0.168,1.635-0.55,2.049
				C98.68,88.94,98.422,89.005,98.167,89.005z" style="fill:#6E6E96;"></path>
			<path d="M90.838,94.138c-0.428,0-0.854-0.182-1.15-0.536l-1.689-2.013
				c-0.533-0.635-0.45-1.581,0.185-2.113c0.636-0.533,1.582-0.45,2.113,0.185l1.689,2.013c0.533,0.635,0.45,1.581-0.185,2.113
				C91.52,94.022,91.178,94.138,90.838,94.138z" style="fill:#6E6E96;"></path>
			<path d="M84.509,100.464c-0.34,0-0.683-0.115-0.964-0.352l-2.011-1.69
				c-0.634-0.533-0.716-1.479-0.183-2.114c0.533-0.633,1.479-0.716,2.114-0.183l2.011,1.69c0.634,0.533,0.716,1.479,0.183,2.114
				C85.361,100.282,84.937,100.464,84.509,100.464z" style="fill:#6E6E96;"></path>
			<path d="M79.376,107.792c-0.254,0-0.513-0.065-0.749-0.202l-2.274-1.314
				c-0.717-0.415-0.963-1.332-0.548-2.049c0.415-0.717,1.333-0.964,2.049-0.548l2.274,1.314c0.717,0.415,0.963,1.332,0.548,2.049
				C80.399,107.523,79.895,107.792,79.376,107.792z" style="fill:#6E6E96;"></path>
			<path d="M75.598,115.902c-0.171,0-0.344-0.029-0.514-0.091l-2.469-0.901
				c-0.778-0.284-1.179-1.145-0.895-1.923c0.284-0.778,1.146-1.178,1.923-0.895l2.469,0.901c0.778,0.284,1.179,1.145,0.895,1.923
				C76.785,115.524,76.21,115.902,75.598,115.902z" style="fill:#6E6E96;"></path>
			<path d="M73.284,124.544c-0.087,0-0.175-0.008-0.263-0.023l-2.587-0.458
				c-0.816-0.145-1.36-0.923-1.216-1.738c0.145-0.817,0.924-1.36,1.738-1.216l2.587,0.458c0.816,0.145,1.36,0.923,1.216,1.738
				C74.63,124.033,73.998,124.544,73.284,124.544z" style="fill:#6E6E96;"></path>
			<path d="M72.502,133.456L72.502,133.456l-2.627-0.001c-0.829,0-1.5-0.672-1.5-1.501
				c0-0.828,0.672-1.499,1.5-1.499h0l2.627,0.001c0.829,0,1.5,0.672,1.5,1.501C74.001,132.785,73.33,133.456,72.502,133.456z" style="fill:#6E6E96;"></path>
			<path d="M70.693,142.825c-0.714,0-1.347-0.512-1.475-1.239c-0.144-0.816,0.401-1.595,1.217-1.738
				l2.588-0.456c0.813-0.144,1.594,0.401,1.737,1.217c0.144,0.816-0.401,1.594-1.217,1.738l-2.588,0.456
				C70.867,142.818,70.779,142.825,70.693,142.825z" style="fill:#6E6E96;"></path>
			<path d="M73.129,151.909c-0.613,0-1.188-0.378-1.41-0.987c-0.283-0.779,0.119-1.64,0.897-1.923l2.47-0.897
				c0.777-0.283,1.639,0.119,1.922,0.897c0.283,0.779-0.119,1.64-0.897,1.923l-2.47,0.897
				C73.472,151.881,73.299,151.909,73.129,151.909z" style="fill:#6E6E96;"></path>
			<path d="M77.105,160.434c-0.519,0-1.022-0.269-1.3-0.75c-0.415-0.717-0.169-1.635,0.549-2.049l2.276-1.314
				c0.717-0.414,1.635-0.168,2.049,0.549c0.415,0.717,0.169,1.635-0.549,2.049l-2.276,1.314
				C77.618,160.369,77.36,160.434,77.105,160.434z" style="fill:#6E6E96;"></path>
			<path d="M82.5,168.137c-0.428,0-0.854-0.183-1.15-0.536c-0.533-0.634-0.45-1.58,0.185-2.113l2.013-1.689
				c0.636-0.532,1.582-0.448,2.113,0.186c0.533,0.634,0.45,1.58-0.185,2.113l-2.013,1.689
				C83.182,168.021,82.84,168.137,82.5,168.137z" style="fill:#6E6E96;"></path>
			<path d="M89.147,174.788c-0.34,0-0.682-0.115-0.963-0.351c-0.635-0.532-0.718-1.479-0.186-2.113
				l1.69-2.015c0.532-0.634,1.479-0.717,2.113-0.186c0.635,0.532,0.718,1.479,0.186,2.113l-1.69,2.015
				C90,174.605,89.575,174.788,89.147,174.788z" style="fill:#6E6E96;"></path>
			<path d="M96.852,180.184c-0.254,0-0.512-0.064-0.748-0.201c-0.718-0.414-0.964-1.331-0.55-2.049
				l1.314-2.277c0.414-0.717,1.333-0.963,2.049-0.549c0.718,0.414,0.964,1.331,0.55,2.049l-1.314,2.277
				C97.875,179.915,97.37,180.184,96.852,180.184z" style="fill:#6E6E96;"></path>
			<path d="M105.376,184.156c-0.171,0-0.344-0.029-0.514-0.091c-0.778-0.283-1.179-1.145-0.896-1.923
				l0.9-2.469c0.284-0.778,1.146-1.177,1.923-0.896c0.778,0.283,1.179,1.145,0.896,1.923l-0.9,2.469
				C106.563,183.778,105.988,184.156,105.376,184.156z" style="fill:#6E6E96;"></path>
			<path d="M114.463,186.592c-0.087,0-0.174-0.007-0.263-0.022c-0.816-0.145-1.36-0.923-1.216-1.738
				l0.457-2.589c0.144-0.815,0.922-1.359,1.738-1.217c0.816,0.145,1.36,0.923,1.216,1.738l-0.457,2.589
				C115.81,186.08,115.177,186.592,114.463,186.592z" style="fill:#6E6E96;"></path>
			<path d="M123.83,187.41c-0.829,0-1.5-0.672-1.5-1.5v-2.627c0-0.828,0.671-1.5,1.5-1.5s1.5,0.672,1.5,1.5
				v2.627C125.33,186.738,124.659,187.41,123.83,187.41z" style="fill:#6E6E96;"></path>
			<path d="M133.197,186.592c-0.714,0-1.347-0.512-1.476-1.24l-0.456-2.589
				c-0.144-0.815,0.401-1.594,1.218-1.737c0.812-0.143,1.593,0.401,1.737,1.218l0.456,2.589c0.144,0.815-0.401,1.594-1.218,1.737
				C133.371,186.585,133.284,186.592,133.197,186.592z" style="fill:#6E6E96;"></path>
			<path d="M142.284,184.156c-0.613,0-1.188-0.378-1.41-0.988l-0.897-2.471
				c-0.282-0.778,0.119-1.639,0.898-1.922c0.778-0.283,1.639,0.119,1.922,0.898l0.897,2.471c0.282,0.778-0.119,1.639-0.898,1.922
				C142.627,184.128,142.454,184.156,142.284,184.156z" style="fill:#6E6E96;"></path>
			<path d="M150.81,180.184c-0.519,0-1.022-0.27-1.301-0.751l-1.314-2.279
				c-0.413-0.718-0.167-1.635,0.551-2.049c0.714-0.412,1.634-0.168,2.049,0.551l1.314,2.279c0.413,0.718,0.167,1.635-0.551,2.049
				C151.322,180.119,151.064,180.184,150.81,180.184z" style="fill:#6E6E96;"></path>
			<path d="M158.515,174.788c-0.428,0-0.854-0.182-1.149-0.535l-1.691-2.015
				c-0.533-0.635-0.45-1.581,0.184-2.113c0.635-0.535,1.582-0.452,2.113,0.184l1.691,2.015c0.533,0.635,0.45,1.581-0.184,2.113
				C159.197,174.673,158.854,174.788,158.515,174.788z" style="fill:#6E6E96;"></path>
			<path d="M165.162,168.137c-0.34,0-0.682-0.115-0.963-0.351l-2.017-1.691
				c-0.635-0.532-0.718-1.479-0.186-2.113c0.532-0.634,1.477-0.718,2.113-0.186l2.017,1.691c0.635,0.532,0.718,1.479,0.186,2.113
				C166.016,167.954,165.591,168.137,165.162,168.137z" style="fill:#6E6E96;"></path>
			<path d="M170.556,160.434c-0.255,0-0.513-0.064-0.749-0.201l-2.277-1.315
				c-0.718-0.414-0.963-1.332-0.549-2.049c0.414-0.719,1.332-0.964,2.049-0.549l2.277,1.315c0.718,0.414,0.963,1.332,0.549,2.049
				C171.578,160.165,171.073,160.434,170.556,160.434z" style="fill:#6E6E96;"></path>
			<path d="M174.529,151.909c-0.171,0-0.344-0.029-0.514-0.091l-2.467-0.899
				c-0.778-0.284-1.18-1.145-0.896-1.923c0.283-0.778,1.144-1.178,1.923-0.896l2.467,0.899c0.778,0.284,1.18,1.145,0.896,1.923
				C175.717,151.531,175.142,151.909,174.529,151.909z" style="fill:#6E6E96;"></path>
			<path d="M176.967,142.825c-0.087,0-0.176-0.008-0.265-0.023l-2.589-0.46
				c-0.815-0.145-1.359-0.923-1.214-1.739c0.145-0.815,0.923-1.357,1.739-1.214l2.589,0.46c0.815,0.145,1.359,0.923,1.214,1.739
				C178.312,142.314,177.68,142.825,176.967,142.825z" style="fill:#6E6E96;"></path>
			<path d="M177.784,133.455C177.784,133.455,177.784,133.455,177.784,133.455l-2.631-0.001
				c-0.828,0-1.499-0.672-1.499-1.501c0-0.828,0.672-1.499,1.5-1.499c0,0,0,0,0.001,0l2.63,0.001c0.828,0,1.499,0.672,1.499,1.501
				C179.284,132.784,178.612,133.455,177.784,133.455z" style="fill:#6E6E96;"></path>
			<path d="M174.373,124.542c-0.714,0-1.347-0.512-1.476-1.24c-0.144-0.816,0.401-1.594,1.218-1.737
				l2.59-0.456c0.812-0.145,1.593,0.4,1.737,1.217c0.144,0.816-0.401,1.594-1.218,1.737l-2.59,0.456
				C174.547,124.535,174.46,124.542,174.373,124.542z" style="fill:#6E6E96;"></path>
			<path d="M172.061,115.901c-0.612,0-1.188-0.378-1.409-0.987c-0.284-0.778,0.117-1.639,0.896-1.923
				l2.469-0.9c0.778-0.283,1.639,0.117,1.923,0.896s-0.117,1.639-0.896,1.923l-2.469,0.9
				C172.404,115.872,172.231,115.901,172.061,115.901z" style="fill:#6E6E96;"></path>
			<path d="M168.278,107.792c-0.519,0-1.022-0.27-1.301-0.751c-0.413-0.718-0.167-1.635,0.551-2.048
				l2.279-1.314c0.716-0.414,1.634-0.169,2.049,0.55c0.413,0.718,0.167,1.635-0.551,2.048l-2.279,1.314
				C168.79,107.728,168.533,107.792,168.278,107.792z" style="fill:#6E6E96;"></path>
			<path d="M163.147,100.464c-0.429,0-0.854-0.183-1.15-0.537c-0.532-0.635-0.449-1.581,0.186-2.113
				l2.017-1.69c0.637-0.532,1.581-0.448,2.113,0.187s0.449,1.581-0.186,2.113l-2.017,1.69
				C163.829,100.349,163.487,100.464,163.147,100.464z" style="fill:#6E6E96;"></path>
			<path d="M156.819,94.139c-0.341,0-0.683-0.115-0.964-0.352c-0.635-0.533-0.717-1.479-0.184-2.113
				l1.693-2.015c0.534-0.633,1.48-0.716,2.113-0.184c0.635,0.533,0.717,1.479,0.184,2.113l-1.693,2.015
				C157.672,93.957,157.247,94.139,156.819,94.139z" style="fill:#6E6E96;"></path>
			<path d="M149.49,89.007c-0.255,0-0.514-0.065-0.75-0.202c-0.717-0.415-0.962-1.332-0.548-2.049
				l1.317-2.278c0.415-0.717,1.334-0.961,2.05-0.547c0.717,0.415,0.962,1.332,0.548,2.049l-1.317,2.278
				C150.512,88.738,150.008,89.007,149.49,89.007z" style="fill:#6E6E96;"></path>
			<path d="M141.383,85.227c-0.171,0-0.344-0.029-0.514-0.091c-0.778-0.284-1.18-1.145-0.896-1.923
				l0.901-2.472c0.284-0.779,1.145-1.18,1.923-0.896c0.778,0.284,1.18,1.145,0.896,1.923l-0.901,2.472
				C142.57,84.849,141.995,85.227,141.383,85.227z" style="fill:#6E6E96;"></path>
			<path d="M132.743,82.911c-0.087,0-0.175-0.008-0.263-0.023c-0.816-0.144-1.36-0.922-1.217-1.738
				l0.458-2.59c0.145-0.816,0.93-1.359,1.738-1.216c0.816,0.144,1.36,0.922,1.217,1.738l-0.458,2.59
				C134.09,82.399,133.457,82.911,132.743,82.911z" style="fill:#6E6E96;"></path>
		</g>
		<path d="M123.829,88.268c-0.829,0-1.5-0.671-1.5-1.5V78c0-0.829,0.671-1.5,1.5-1.5
			s1.5,0.671,1.5,1.5v8.768C125.329,87.597,124.658,88.268,123.829,88.268z" style="display:inline;fill:#FF9FB0;"></path>
		<path d="M69.875,133.456c-0.828,0-1.5-0.672-1.5-1.5s0.671-1.5,1.5-1.5l8.767-0.001
			c0.828,0,1.5,0.672,1.5,1.5s-0.671,1.5-1.5,1.5L69.875,133.456z" style="display:inline;fill:#FF9FB0;"></path>
		<path d="M123.831,187.41c-0.828,0-1.5-0.671-1.5-1.5l-0.002-8.766
			c0-0.828,0.671-1.5,1.5-1.5c0,0,0,0,0,0c0.828,0,1.5,0.671,1.5,1.5l0.002,8.766C125.331,186.738,124.66,187.41,123.831,187.41
			C123.831,187.41,123.831,187.41,123.831,187.41z" style="display:inline;fill:#FF9FB0;"></path>
		<path d="M169.02,133.454c-0.828,0-1.5-0.672-1.5-1.5s0.672-1.5,1.5-1.5l8.764-0.001
			c0.828,0,1.5,0.672,1.5,1.5s-0.672,1.5-1.5,1.5L169.02,133.454z" style="display:inline;fill:#FF9FB0;"></path>
		<path d="M150.587,160.361c-0.384,0-0.768-0.146-1.061-0.439l-26.832-26.832
			c-0.282-0.282-0.44-0.664-0.439-1.063c0-0.398,0.16-0.78,0.443-1.062l21.045-20.898c0.587-0.583,1.538-0.58,2.121,0.007
			c0.584,0.588,0.58,1.538-0.008,2.122l-19.977,19.838l25.768,25.768c0.586,0.586,0.586,1.535,0,2.121
			C151.354,160.215,150.971,160.361,150.587,160.361z" style="display:inline;fill:#6E6E96;"></path>
		<path d="M90.458,151.891c-0.172,0-0.34-0.089-0.433-0.249
			c-0.139-0.238-0.058-0.544,0.181-0.684l33.297-19.361c0.238-0.14,0.544-0.059,0.684,0.182c0.139,0.238,0.058,0.544-0.181,0.684
			l-33.297,19.361C90.63,151.869,90.544,151.891,90.458,151.891z" style="display:inline;fill:#FF9FB0;"></path>
		<g style="display:inline;">
			<circle r="4.095" cy="132.124" cx="123.711" style="fill:#F0F0FF;"></circle>
			<path d="M123.711,137.719c-3.085,0-5.595-2.51-5.595-5.595s2.51-5.595,5.595-5.595
				c3.085,0,5.595,2.51,5.595,5.595S126.796,137.719,123.711,137.719z M123.711,129.529c-1.431,0-2.595,1.164-2.595,2.595
				s1.164,2.595,2.595,2.595c1.431,0,2.595-1.164,2.595-2.595S125.142,129.529,123.711,129.529z" style="fill:#6E6E96;"></path>
		</g>
		<path d="M54.03,143.293
			c-4.725-38.847,22.938-74.168,61.787-78.893c38.847-4.723,74.169,22.938,78.894,61.785c0.626,5.135,0.668,10.208,0.21,15.154
			c0.938-6.291,1.076-12.808,0.271-19.427c-4.812-39.591-40.812-67.784-80.404-62.969c-39.594,4.815-67.785,40.813-62.97,80.405
			c1.345,11.058,5.125,21.226,10.733,30.03C58.159,161.55,55.181,152.757,54.03,143.293z" style="display:inline;opacity:0.58;fill:#FFFFFF;enable-background:new    ;"></path>
		<path d="M123.671,206.827c-41.197,0-74.713-33.516-74.713-74.713
			s33.516-74.713,74.713-74.713c41.197,0,74.713,33.516,74.713,74.713S164.868,206.827,123.671,206.827z M123.671,60.401
			c-39.542,0-71.713,32.17-71.713,71.713s32.17,71.713,71.713,71.713c39.543,0,71.713-32.17,71.713-71.713
			S163.214,60.401,123.671,60.401z" style="display:inline;fill:#6E6E96;"></path>
		<path d="M123.755,194.686c-34.548,0-62.655-28.107-62.655-62.655
			c0-34.548,28.107-62.655,62.655-62.655s62.655,28.107,62.655,62.655C186.41,166.578,158.303,194.686,123.755,194.686z
			 M123.755,72.375c-32.894,0-59.655,26.761-59.655,59.655c0,32.894,26.761,59.655,59.655,59.655s59.655-26.762,59.655-59.655
			C183.41,99.136,156.648,72.375,123.755,72.375z" style="display:inline;fill:#6E6E96;"></path>
		<path d="M188.691,102.172
			c3.412,8.301,5.307,17.388,5.307,26.919c0,39.136-31.725,70.858-70.859,70.858s-70.858-31.725-70.858-70.858
			c0-5.171,0.568-10.208,1.621-15.065c-1.693,6.131-2.615,12.581-2.615,19.251c0,39.883,32.332,72.215,72.216,72.215
			c39.886,0,72.216-32.332,72.216-72.215C195.719,122.139,193.193,111.593,188.691,102.172z" style="display:inline;opacity:0.15;fill:#6E6E96;enable-background:new    ;"></path>
		<path d="M163.564,93.552
			c-10.146-10.339-24.27-16.759-39.898-16.759c-30.875,0-55.905,25.03-55.905,55.906c0,10.729,3.028,20.751,8.271,29.263
			L163.564,93.552z" style="display:inline;opacity:0.54;fill:#FFFFFF;enable-background:new    ;"></path>
		<g style="display:inline;opacity:0.1;">
			<path d="M139.875,72.35c22.191,8.236,38.008,29.597,38.008,54.656c0,32.188-26.094,58.284-58.283,58.284
				c-30.766,0-55.946-23.843-58.115-54.056c0.114,33.677,27.445,60.944,61.149,60.944c33.775,0,61.155-27.382,61.155-61.153
				C183.789,103.238,165.252,79.795,139.875,72.35z" style="fill:#6E6E96;"></path>
		</g>
	</g>
	<g id="Layer_5_1_">
		<g>
			<g>
				<path d="M124.31,98.568c0,2.336-1.912,4.249-4.25,4.249H29.681c-2.337,0-4.25-1.913-4.25-4.249V36.521
					c0-2.337,1.913-4.25,4.25-4.25h90.379c2.338,0,4.25,1.913,4.25,4.25V98.568z" style="fill:#E6EEFF;"></path>
				<path d="M120.06,104.317H29.681c-3.17,0-5.75-2.579-5.75-5.749V36.521c0-3.17,2.58-5.75,5.75-5.75h90.379
					c3.17,0,5.75,2.58,5.75,5.75v62.047C125.81,101.738,123.23,104.317,120.06,104.317z M29.681,33.771
					c-1.517,0-2.75,1.234-2.75,2.75v62.047c0,1.516,1.233,2.749,2.75,2.749h90.379c1.517,0,2.75-1.233,2.75-2.749V36.521
					c0-1.516-1.233-2.75-2.75-2.75H29.681z" style="fill:#CCCCDE;"></path>
			</g>
			<g>
				<rect height="16.561" width="98.86" style="fill:#D8D8F0;" y="45.498" x="25.431"></rect>
				<path d="M125.791,63.559H23.931V43.998h101.86V63.559z M26.931,60.559h95.86V46.998h-95.86V60.559z" style="fill:#CCCCDE;"></path>
			</g>
			<rect height="13.582" width="84.506" style="fill:#FFE7D1;" y="74.917" x="32.781"></rect>
			<g>
				<polygon points="32.781,88.499 46.361,74.917 51.342,74.917 37.76,88.499" style="fill:#FFFFFF;"></polygon>
				<polygon points="45.97,88.499 59.551,74.917 64.531,74.917 50.951,88.499" style="fill:#FFFFFF;"></polygon>
				<polygon points="59.158,88.499 72.742,74.917 77.721,74.917 64.139,88.499" style="fill:#FFFFFF;"></polygon>
				<polygon points="72.348,88.499 85.929,74.917 90.91,74.917 77.328,88.499" style="fill:#FFFFFF;"></polygon>
				<polygon points="85.537,88.499 99.119,74.917 104.099,74.917 90.517,88.499" style="fill:#FFFFFF;"></polygon>
				<polygon points="98.727,88.499 112.308,74.917 117.287,74.917 103.705,88.499" style="fill:#FFFFFF;"></polygon>
			</g>
		</g>
		<g>
			<g>
				<path d="M240.576,169.262c-0.828,0-1.5-0.672-1.5-1.5v-19.088c0-9.698-7.572-17.588-16.879-17.588
					c-9.309,0-16.881,7.89-16.881,17.588v19.088c0,0.828-0.672,1.5-1.5,1.5s-1.5-0.672-1.5-1.5v-19.088
					c0-11.353,8.919-20.588,19.881-20.588c10.961,0,19.879,9.235,19.879,20.588v19.088
					C242.076,168.59,241.404,169.262,240.576,169.262z" style="fill:#CCCCDE;"></path>
			</g>
			<g>
				<polygon points="233.145,236.586 233.145,151.2 249.713,151.2 249.713,236.586" style="fill:#CFF2E8;"></polygon>
				<path d="M249.713,238.086h-16.568c-0.828,0-1.5-0.672-1.5-1.5V151.2c0-0.828,0.672-1.5,1.5-1.5h16.568
					c0.828,0,1.5,0.672,1.5,1.5v85.386C251.213,237.414,250.541,238.086,249.713,238.086z M234.645,235.086h13.568V152.7h-13.568
					V235.086z" style="fill:#CCCCDE;"></path>
			</g>
			<g>
				<rect height="85.386" width="66.277" style="fill:#DBFFF5;" y="151.2" x="166.865"></rect>
				<path d="M233.143,238.086h-66.277c-0.828,0-1.5-0.672-1.5-1.5V151.2c0-0.828,0.672-1.5,1.5-1.5h66.277
					c0.828,0,1.5,0.672,1.5,1.5v85.386C234.643,237.414,233.971,238.086,233.143,238.086z M168.365,235.086h63.277V152.7h-63.277
					V235.086z" style="fill:#CCCCDE;"></path>
			</g>
			<g>
				<path d="M220.086,169.262c-0.828,0-1.5-0.672-1.5-1.5v-19.088c0-9.698-7.572-17.588-16.88-17.588
					s-16.88,7.89-16.88,17.588v19.088c0,0.828-0.672,1.5-1.5,1.5s-1.5-0.672-1.5-1.5v-19.088c0-11.353,8.918-20.588,19.88-20.588
					s19.88,9.235,19.88,20.588v19.088C221.586,168.59,220.914,169.262,220.086,169.262z" style="fill:#CCCCDE;"></path>
			</g>
		</g>
		<g>
			<g>
				<path d="M60.407,164.508" style="fill:#FFDFDF;stroke:#CCCCDE;stroke-width:3;stroke-linecap:round;stroke-linejoin:round;"></path>
			</g>
			<g>
				<path d="M112.707,158.242c0,2.533-2.074,4.607-4.609,4.607h-95.38c-2.535,0-4.608-2.074-4.608-4.607
					v-3.832c0-2.534,2.073-4.607,4.608-4.607h95.38c2.535,0,4.609,2.072,4.609,4.607V158.242z" style="fill:#FFDFDF;"></path>
				<path d="M108.098,164.35h-95.38c-3.368,0-6.108-2.74-6.108-6.107v-3.832c0-3.367,2.74-6.107,6.108-6.107
					h95.38c3.369,0,6.109,2.74,6.109,6.107v3.832C114.207,161.609,111.467,164.35,108.098,164.35z M12.718,151.303
					c-1.714,0-3.108,1.394-3.108,3.107v3.832c0,1.714,1.394,3.107,3.108,3.107h95.38c1.714,0,3.109-1.394,3.109-3.107v-3.832
					c0-1.714-1.395-3.107-3.109-3.107H12.718z" style="fill:#CCCCDE;"></path>
			</g>
			<g>
				<path d="M11.431,161.551l5.612,47.68c1.467,5.627,2.805,10.232,13.24,10.232h61.4
					c8.272,0,11.707-4.621,13.094-10.271l4.145-47.672L11.431,161.551z M35.699,204.184c0,2.381-1.948,4.328-4.329,4.328h-1.479
					c-2.381,0-4.328-1.947-4.328-4.328V176.77c0-2.379,1.947-4.328,4.328-4.328h1.479c2.381,0,4.329,1.949,4.329,4.328V204.184z
					 M55.545,204.184c0,2.381-1.947,4.328-4.328,4.328h-1.479c-2.381,0-4.328-1.947-4.328-4.328V176.77
					c0-2.379,1.947-4.328,4.328-4.328h1.479c2.381,0,4.328,1.949,4.328,4.328V204.184z M75.395,204.184
					c0,2.381-1.949,4.328-4.328,4.328h-1.479c-2.38,0-4.328-1.947-4.328-4.328V176.77c0-2.379,1.948-4.328,4.328-4.328h1.479
					c2.379,0,4.328,1.949,4.328,4.328V204.184z M94.818,204.184c0,2.381-1.946,4.328-4.327,4.328h-1.479
					c-2.381,0-4.328-1.947-4.328-4.328V176.77c0-2.379,1.947-4.328,4.328-4.328h1.479c2.381,0,4.327,1.949,4.327,4.328V204.184z" style="fill:#FFDFDF;"></path>
				<path d="M91.683,220.963h-61.4c-11.732,0-13.237-5.772-14.692-11.354l-0.038-0.202l-5.809-49.354
					l100.814-0.033l-4.325,49.53C104.375,217.123,99.479,220.963,91.683,220.963z M18.521,208.952
					c1.366,5.237,2.409,9.011,11.763,9.011h61.4c6.373,0,10.064-2.866,11.609-9.019l3.993-45.924l-94.167,0.029L18.521,208.952z
					 M90.491,210.012h-1.479c-3.214,0-5.828-2.614-5.828-5.828V176.77c0-3.214,2.614-5.828,5.828-5.828h1.479
					c3.213,0,5.827,2.614,5.827,5.828v27.414C96.318,207.397,93.704,210.012,90.491,210.012z M89.012,173.941
					c-1.56,0-2.828,1.269-2.828,2.828v27.414c0,1.56,1.269,2.828,2.828,2.828h1.479c1.559,0,2.827-1.269,2.827-2.828V176.77
					c0-1.56-1.268-2.828-2.827-2.828H89.012z M71.067,210.012h-1.479c-3.214,0-5.828-2.614-5.828-5.828V176.77
					c0-3.214,2.614-5.828,5.828-5.828h1.479c3.214,0,5.828,2.614,5.828,5.828v27.414C76.895,207.397,74.281,210.012,71.067,210.012z
					 M69.588,173.941c-1.56,0-2.828,1.269-2.828,2.828v27.414c0,1.56,1.269,2.828,2.828,2.828h1.479c1.56,0,2.828-1.269,2.828-2.828
					V176.77c0-1.56-1.269-2.828-2.828-2.828H69.588z M51.217,210.012h-1.479c-3.213,0-5.828-2.614-5.828-5.828V176.77
					c0-3.214,2.614-5.828,5.828-5.828h1.479c3.214,0,5.828,2.614,5.828,5.828v27.414C57.045,207.397,54.431,210.012,51.217,210.012z
					 M49.738,173.941c-1.559,0-2.828,1.269-2.828,2.828v27.414c0,1.56,1.269,2.828,2.828,2.828h1.479
					c1.56,0,2.828-1.269,2.828-2.828V176.77c0-1.56-1.269-2.828-2.828-2.828H49.738z M31.37,210.012h-1.479
					c-3.214,0-5.828-2.614-5.828-5.828V176.77c0-3.214,2.614-5.828,5.828-5.828h1.479c3.214,0,5.829,2.614,5.829,5.828v27.414
					C37.199,207.397,34.584,210.012,31.37,210.012z M29.891,173.941c-1.56,0-2.828,1.269-2.828,2.828v27.414
					c0,1.56,1.269,2.828,2.828,2.828h1.479c1.56,0,2.829-1.269,2.829-2.828V176.77c0-1.56-1.269-2.828-2.829-2.828H29.891z" style="fill:#CCCCDE;"></path>
			</g>
			<g>
				<g>
					<path d="M55.43,160.85v-41.052c0-2.381,1.948-4.328,4.327-4.328h1.874c2.381,0,4.329,1.947,4.329,4.328
						v41.052" style="fill:#FFDFDF;"></path>
					<path d="M65.96,162.35c-0.829,0-1.5-0.672-1.5-1.5v-41.052c0-1.56-1.269-2.828-2.829-2.828h-1.874
						c-1.559,0-2.827,1.269-2.827,2.828v41.052c0,0.828-0.671,1.5-1.5,1.5s-1.5-0.672-1.5-1.5v-41.052
						c0-3.214,2.614-5.828,5.827-5.828h1.874c3.214,0,5.829,2.614,5.829,5.828v41.052C67.46,161.678,66.789,162.35,65.96,162.35z" style="fill:#CCCCDE;"></path>
				</g>
				<g>
					<path d="M65.96,160.85v-41.052c0-2.381-1.948-4.328-4.329-4.328h-1.874
						c-2.379,0-4.327,1.947-4.327,4.328v41.052H65.96L65.96,160.85z" style="fill:#FFDFDF;"></path>
					<path d="M65.96,162.35H55.43c-0.829,0-1.5-0.672-1.5-1.5v-41.052c0-3.214,2.614-5.828,5.827-5.828h1.874
						c3.214,0,5.829,2.614,5.829,5.828v41.052C67.46,161.678,66.789,162.35,65.96,162.35z M56.93,159.35h7.53v-39.552
						c0-1.56-1.269-2.828-2.829-2.828h-1.874c-1.559,0-2.827,1.269-2.827,2.828V159.35z" style="fill:#CCCCDE;"></path>
				</g>
			</g>
		</g>
	</g>
	<path d="M131.443-44.941" style="fill:none;stroke:#000000;stroke-width:15;"></path>
	<g>
		<g>
			<circle r="19.968" cy="66.323" cx="179.809" style="fill:#FFE2D6;"></circle>
			<path d="M179.809,87.791c-11.838,0-21.469-9.63-21.469-21.468s9.631-21.468,21.469-21.468
				c11.837,0,21.467,9.631,21.467,21.468S191.646,87.791,179.809,87.791z M179.809,47.855c-10.184,0-18.469,8.285-18.469,18.468
				c0,10.183,8.285,18.468,18.469,18.468c10.183,0,18.467-8.285,18.467-18.468C198.275,56.14,189.991,47.855,179.809,47.855z" style="fill:#CCCCDE;"></path>
		</g>
		<g>
			<circle r="14.204" cy="66.194" cx="179.938" style="fill:#FFF6D6;"></circle>
			<path d="M179.938,81.898c-8.66,0-15.705-7.045-15.705-15.704s7.045-15.704,15.705-15.704
				c8.659,0,15.703,7.044,15.703,15.704S188.597,81.898,179.938,81.898z M179.938,53.49c-7.006,0-12.705,5.699-12.705,12.704
				s5.699,12.704,12.705,12.704c7.005,0,12.703-5.699,12.703-12.704S186.942,53.49,179.938,53.49z" style="fill:#CCCCDE;"></path>
		</g>
	</g>
	<g>
		<g>
			<circle r="19.968" cy="216.499" cx="44.195" style="fill:#FFE2D6;"></circle>
			<path d="M44.195,237.967c-11.837,0-21.468-9.631-21.468-21.468s9.63-21.468,21.468-21.468
				s21.468,9.631,21.468,21.468S56.032,237.967,44.195,237.967z M44.195,198.031c-10.183,0-18.468,8.284-18.468,18.468
				s8.285,18.468,18.468,18.468c10.184,0,18.468-8.284,18.468-18.468S54.378,198.031,44.195,198.031z" style="fill:#CCCCDE;"></path>
		</g>
		<g>
			<circle r="14.204" cy="216.37" cx="44.324" style="fill:#FFF6D6;"></circle>
			<path d="M44.324,232.074c-8.659,0-15.704-7.045-15.704-15.704s7.045-15.704,15.704-15.704
				s15.704,7.045,15.704,15.704S52.983,232.074,44.324,232.074z M44.324,203.666c-7.005,0-12.704,5.699-12.704,12.704
				s5.699,12.704,12.704,12.704s12.704-5.699,12.704-12.704S51.329,203.666,44.324,203.666z" style="fill:#CCCCDE;"></path>
		</g>
	</g>
	<g>
		<g>
			<circle r="19.968" cy="85.806" cx="230.417" style="fill:#FFE2D6;"></circle>
			<path d="M230.417,107.274c-11.837,0-21.468-9.63-21.468-21.468s9.631-21.468,21.468-21.468
				s21.468,9.631,21.468,21.468S242.254,107.274,230.417,107.274z M230.417,67.338c-10.184,0-18.468,8.285-18.468,18.468
				c0,10.183,8.284,18.468,18.468,18.468s18.468-8.285,18.468-18.468C248.885,75.623,240.601,67.338,230.417,67.338z" style="fill:#CCCCDE;"></path>
		</g>
		<g>
			<circle r="14.204" cy="85.677" cx="230.546" style="fill:#FFF6D6;"></circle>
			<path d="M230.546,101.381c-8.659,0-15.704-7.045-15.704-15.704s7.045-15.704,15.704-15.704
				s15.704,7.044,15.704,15.704S239.205,101.381,230.546,101.381z M230.546,72.973c-7.005,0-12.704,5.699-12.704,12.704
				s5.699,12.704,12.704,12.704s12.704-5.699,12.704-12.704S237.551,72.973,230.546,72.973z" style="fill:#CCCCDE;"></path>
		</g>
	</g>
</g>
<g id="Layer_2_2_">
	<g>
		
			<rect height="172.669" width="15.083" style="fill:#FFD6A8;" transform="matrix(0.9617 0.2741 -0.2741 0.9617 49.3512 -21.6979)" y="79.396" x="94.769"></rect>
		<path d="M85.899,252.326c-0.138,0-0.276-0.019-0.411-0.058l-14.505-4.135
			c-0.797-0.227-1.258-1.057-1.031-1.854L117.28,80.224c0.227-0.796,1.061-1.26,1.854-1.031l14.506,4.134
			c0.383,0.109,0.706,0.365,0.899,0.713s0.241,0.758,0.132,1.141L87.342,251.237c-0.109,0.383-0.365,0.706-0.713,0.899
			C86.404,252.262,86.152,252.326,85.899,252.326z M73.248,245.66l11.621,3.312l46.507-163.172l-11.621-3.312L73.248,245.66z" style="fill:#6E6E96;"></path>
	</g>
	<g>
		
			<rect height="172.67" width="15.083" style="fill:#FFD6A8;" transform="matrix(-0.9617 0.2741 -0.2741 -0.9617 333.0923 284.9055)" y="79.389" x="139.1"></rect>
		<path d="M163.053,252.32c-0.253,0-0.504-0.064-0.729-0.189c-0.348-0.193-0.604-0.517-0.713-0.899
			L114.281,85.174c-0.227-0.797,0.234-1.626,1.031-1.854l14.505-4.134c0.384-0.109,0.793-0.062,1.141,0.132s0.604,0.517,0.713,0.899
			l47.33,166.057c0.228,0.797-0.234,1.627-1.031,1.854l-14.506,4.135C163.329,252.302,163.19,252.32,163.053,252.32z
			 M117.577,85.794l46.507,163.172l11.621-3.312L129.197,82.482L117.577,85.794z" style="fill:#6E6E96;"></path>
	</g>
	<g>
		<rect height="197.796" width="15.081" style="fill:#FFD6A8;" y="40.79" x="116.536"></rect>
		<path d="M131.617,240.086h-15.081c-0.829,0-1.5-0.672-1.5-1.5V40.79c0-0.829,0.671-1.5,1.5-1.5h15.081
			c0.828,0,1.5,0.671,1.5,1.5v197.796C133.117,239.414,132.445,240.086,131.617,240.086z M118.036,237.086h12.081V42.29h-12.081
			V237.086z" style="fill:#6E6E96;"></path>
	</g>
	<circle r="82.529" cy="137.255" cx="123.866" style="fill:#FF8AA2;"></circle>
	<path d="M46.523,138.814c0-43.788,35.496-79.282,79.283-79.282c30.328,0,57.61,17.976,70.943,42.993
		c-12.86-27.474-40.741-46.513-73.081-46.513c-44.55,0-80.665,36.114-80.665,80.665c0,32.331,19.031,60.207,46.495,73.073
		C64.491,196.413,46.523,169.135,46.523,138.814z" style="fill:#FFABBB;"></path>
	<circle r="68.061" cy="137.255" cx="123.866" style="fill:#F0F0FF;"></circle>
	<path d="M59.609,138.97c0-36.41,29.516-65.926,65.927-65.926c25.217,0,47.903,14.948,58.991,35.75
		c-10.696-22.845-33.879-38.677-60.771-38.677c-37.045,0-67.075,30.029-67.075,67.074c0,26.885,15.825,50.063,38.662,60.764
		C74.55,186.863,59.609,164.184,59.609,138.97z" style="fill:#FFFFFF;"></path>
	<circle r="51.321" cy="137.255" cx="123.866" style="fill:#FF8AA2;"></circle>
	<path d="M125.505,187.169c-26.527,0-48.031-21.505-48.031-48.03c0-26.528,21.504-48.032,48.031-48.032
		c26.527,0,48.032,21.504,48.032,48.032c0,12.252-4.594,23.426-12.146,31.91c8.407-9.14,13.545-21.334,13.545-34.729
		c0-28.345-22.979-51.322-51.32-51.322c-28.344,0-51.322,22.977-51.322,51.322c0,28.344,22.978,51.32,51.322,51.32
		c6.299,0,12.328-1.142,17.904-3.217C136.509,186.195,131.123,187.169,125.505,187.169z" style="fill:#FFABBB;"></path>
	<circle r="34.125" cy="137.255" cx="123.866" style="fill:#F0F0FF;"></circle>
	<g>
		<path d="M123.114,104.634c-18.172,0-32.903,14.731-32.903,32.903c0,18.17,14.731,32.9,32.903,32.9
			c18.171,0,32.901-14.73,32.901-32.9C156.018,119.365,141.285,104.634,123.114,104.634z M124.413,169.857
			c-17.134,0-31.023-13.891-31.023-31.021c0-17.134,13.89-31.023,31.023-31.023c17.133,0,31.024,13.89,31.024,31.023
			C155.438,155.968,141.546,169.857,124.413,169.857z" style="fill:#FFFFFF;"></path>
	</g>
	<circle r="12.52" cy="137.255" cx="123.866" style="fill:#FF8AA2;"></circle>
	<path d="M123.866,221.284c-46.334,0-84.029-37.695-84.029-84.029c0-46.333,37.695-84.029,84.029-84.029
		c46.333,0,84.028,37.695,84.028,84.029C207.895,183.589,170.199,221.284,123.866,221.284z M123.866,56.226
		c-44.68,0-81.029,36.35-81.029,81.029c0,44.68,36.35,81.029,81.029,81.029c44.679,0,81.028-36.35,81.028-81.029
		C204.895,92.576,168.545,56.226,123.866,56.226z" style="fill:#6E6E96;"></path>
	<path d="M123.866,206.816c-38.356,0-69.561-31.205-69.561-69.562c0-38.356,31.205-69.561,69.561-69.561
		c38.355,0,69.561,31.205,69.561,69.561C193.427,175.611,162.222,206.816,123.866,206.816z M123.866,70.694
		c-36.702,0-66.561,29.859-66.561,66.561c0,36.702,29.859,66.562,66.561,66.562c36.701,0,66.561-29.859,66.561-66.562
		C190.427,100.553,160.567,70.694,123.866,70.694z" style="fill:#6E6E96;"></path>
	<path d="M123.866,190.076c-29.126,0-52.821-23.695-52.821-52.821c0-29.125,23.695-52.821,52.821-52.821
		s52.821,23.695,52.821,52.821C176.688,166.381,152.992,190.076,123.866,190.076z M123.866,87.434
		c-27.472,0-49.821,22.35-49.821,49.821c0,27.472,22.35,49.821,49.821,49.821s49.821-22.35,49.821-49.821
		C173.688,109.784,151.338,87.434,123.866,87.434z" style="fill:#6E6E96;"></path>
	<path d="M123.866,172.88c-19.644,0-35.625-15.981-35.625-35.625s15.981-35.625,35.625-35.625
		s35.625,15.981,35.625,35.625S143.51,172.88,123.866,172.88z M123.866,104.63c-17.989,0-32.625,14.636-32.625,32.625
		s14.636,32.625,32.625,32.625s32.625-14.636,32.625-32.625S141.855,104.63,123.866,104.63z" style="fill:#6E6E96;"></path>
	<path d="M123.866,151.275c-7.73,0-14.02-6.29-14.02-14.021s6.29-14.02,14.02-14.02s14.02,6.29,14.02,14.02
		S131.597,151.275,123.866,151.275z M123.866,126.235c-6.077,0-11.02,4.944-11.02,11.02c0,6.077,4.943,11.021,11.02,11.021
		c6.076,0,11.02-4.943,11.02-11.021C134.886,131.179,129.942,126.235,123.866,126.235z" style="fill:#6E6E96;"></path>
	<path d="M123.866,53.784c-8.277,0-16.266,1.224-23.804,3.491
		c6.896-1.952,14.164-3.02,21.684-3.02c43.887,0,79.467,35.579,79.467,79.468s-35.58,79.469-79.467,79.469
		c-43.889,0-79.468-35.58-79.468-79.469c0-13.083,3.182-25.417,8.784-36.302c-6.204,11.589-9.726,24.829-9.726,38.892
		c0,45.578,36.95,82.529,82.529,82.529c45.578,0,82.527-36.951,82.527-82.529C206.395,90.733,169.443,53.784,123.866,53.784z" style="opacity:0.2;fill:#6E6E96;enable-background:new    ;"></path>
	<path d="M124.115,68.845c-6.796,0-13.356,1.005-19.545,2.866
		c5.662-1.603,11.629-2.479,17.805-2.479c36.037,0,65.254,29.214,65.254,65.252c0,36.037-29.217,65.252-65.254,65.252
		c-36.039,0-65.253-29.215-65.253-65.252c0-10.744,2.613-20.871,7.212-29.81c-5.094,9.516-7.986,20.388-7.986,31.937
		c0,37.425,30.34,67.768,67.767,67.768c37.426,0,67.767-30.343,67.767-67.768C191.882,99.185,161.541,68.845,124.115,68.845z" style="opacity:0.2;fill:#6E6E96;enable-background:new    ;"></path>
	<path d="M126.283,83.521c-5.175-0.266-10.211,0.243-14.999,1.418
		c4.375-1,8.955-1.434,13.659-1.192c27.448,1.411,48.555,24.806,47.145,52.254c-1.411,27.447-24.806,48.558-52.254,47.146
		c-27.448-1.41-48.556-24.808-47.145-52.254c0.42-8.184,2.807-15.793,6.66-22.422c-4.252,7.048-6.881,15.215-7.333,24.012
		c-1.465,28.505,20.456,52.803,48.961,54.267c28.505,1.467,52.802-20.454,54.267-48.96
		C176.71,109.283,154.788,84.987,126.283,83.521z" style="opacity:0.2;fill:#6E6E96;enable-background:new    ;"></path>
	<path d="M124.039,102.829c-0.276,0-0.55,0.014-0.825,0.021
		c17.033,0.438,30.712,14.375,30.712,31.515c0,17.415-14.121,31.535-31.536,31.535c-17.417,0-31.536-14.12-31.536-31.535
		c0-4.477,0.938-8.731,2.62-12.588c-2.276,4.573-3.562,9.724-3.562,15.179c0,18.846,15.279,34.125,34.126,34.125
		c18.847,0,34.126-15.279,34.126-34.125C158.165,118.108,142.886,102.829,124.039,102.829z" style="opacity:0.2;fill:#6E6E96;enable-background:new    ;"></path>
	<path d="M124.325,124.662c4.644,1.043,8.114,5.183,8.114,10.142
		c0,5.745-4.656,10.399-10.4,10.399c-5.745,0-10.401-4.654-10.401-10.399c0-0.006,0.001-0.01,0.001-0.016
		c-0.148,0.771-0.232,1.563-0.232,2.374c0,6.916,5.605,12.52,12.521,12.52c6.914,0,12.521-5.604,12.521-12.52
		C136.448,130.382,131.055,124.874,124.325,124.662z" style="opacity:0.2;fill:#6E6E96;enable-background:new    ;"></path>
	<path d="M114.179,139.75c0-6.207,5.032-11.24,11.24-11.24c3.632,0,6.854,1.731,8.908,4.405
		c-1.738-3.961-5.689-6.73-10.292-6.73c-6.208,0-11.24,5.032-11.24,11.24c0,2.575,0.875,4.94,2.332,6.835
		C114.521,142.879,114.179,141.355,114.179,139.75z" style="fill:#FFABBB;"></path>
	<polygon points="80.391,215.137 89.704,219.749 80.834,249.385 
		85.905,250.831 96.769,216.452 82.169,208.917" style="opacity:0.15;fill:#6E6E96;enable-background:new    ;"></polygon>
	<polygon points="168.014,249.412 159.402,217.865 167.818,212.566 
		166.468,208.917 153.281,214.098 163.036,250.831" style="opacity:0.15;fill:#6E6E96;enable-background:new    ;"></polygon>
	<rect height="5.649" width="15.069" style="opacity:0.15;fill:#6E6E96;enable-background:new    ;" y="219.749" x="116.548"></rect>
	<rect height="2.059" width="12.278" style="opacity:0.43;fill:#FFFFFF;enable-background:new    ;" y="42.187" x="117.907"></rect>
	<path d="M194.596,209.816c-0.384,0-0.768-0.146-1.061-0.439l-70.513-70.513
		c-0.586-0.586-0.586-1.535,0-2.121s1.535-0.586,2.121,0l70.513,70.513c0.586,0.586,0.586,1.535,0,2.121
		C195.363,209.67,194.979,209.816,194.596,209.816z" style="fill:#6E6E96;"></path>
	<g>
		<polygon points="187.393,201.17 187.393,217.598 209.409,239.613 209.409,223.186 227.206,223.186 
			205.189,201.17" style="fill:#7FEAFF;"></polygon>
		<path d="M209.409,241.113c-0.39,0-0.773-0.152-1.061-0.439l-22.017-22.016
			c-0.281-0.281-0.439-0.663-0.439-1.061V201.17c0-0.828,0.672-1.5,1.5-1.5h17.797c0.397,0,0.779,0.158,1.061,0.439l22.017,22.016
			c0.429,0.429,0.558,1.074,0.325,1.635s-0.779,0.926-1.386,0.926h-16.297v14.928c0,0.606-0.365,1.153-0.926,1.386
			C209.798,241.076,209.603,241.113,209.409,241.113z M188.893,216.977l19.017,19.016v-12.807c0-0.828,0.672-1.5,1.5-1.5h14.176
			l-19.017-19.016h-15.676V216.977z" style="fill:#6E6E96;"></path>
	</g>
	<path d="M166.469,210.417c-0.511,0-1.009-0.261-1.289-0.732
		l-42.385-71.113c-0.424-0.711-0.191-1.632,0.521-2.056c0.712-0.424,1.632-0.192,2.057,0.521l42.384,71.113
		c0.425,0.711,0.191,1.632-0.521,2.056C166.995,210.349,166.73,210.417,166.469,210.417z" style="opacity:0.18;fill:#6E6E96;enable-background:new    ;"></path>
	<path d="M142.92,240.086h-38.616c-0.829,0-1.5-0.672-1.5-1.5
		s0.671-1.5,1.5-1.5h38.616c0.828,0,1.5,0.672,1.5,1.5S143.748,240.086,142.92,240.086z" style="opacity:0.2;fill:#6E6E96;enable-background:new    ;"></path>
	<path d="M198.491,252.802H50.616c-0.829,0-1.5-0.672-1.5-1.5
		s0.671-1.5,1.5-1.5h147.875c0.828,0,1.5,0.672,1.5,1.5S199.319,252.802,198.491,252.802z" style="opacity:0.2;fill:#6E6E96;enable-background:new    ;"></path>
	<polygon points="187.393,201.17 209.409,223.186 209.409,239.613 
		187.393,217.598" style="opacity:0.15;fill:#6E6E96;enable-background:new    ;"></polygon>
	<path d="M223.922,252.802h-13.186c-0.828,0-1.5-0.672-1.5-1.5
		s0.672-1.5,1.5-1.5h13.186c0.828,0,1.5,0.672,1.5,1.5S224.75,252.802,223.922,252.802z" style="opacity:0.2;fill:#6E6E96;enable-background:new    ;"></path>
	<path d="M40.255,252.802H32.72c-0.829,0-1.5-0.672-1.5-1.5
		s0.671-1.5,1.5-1.5h7.535c0.829,0,1.5,0.672,1.5,1.5S41.083,252.802,40.255,252.802z" style="opacity:0.2;fill:#6E6E96;enable-background:new    ;"></path>
</g>
</svg>
